<?xml version="1.0"?>
<svg xmlns="http://www.w3.org/2000/svg" id="Layer_1" data-name="Layer 1" viewBox="0 0 64 64"><title>Dusk Part 1</title><path d="M54,56,25,57V21L35,1l1.82.26A5,5,0,0,1,41,7.14L38.42,21H57.85c3.73,0,5.8,2.33,5.15,6l-4,3,5,4-4,5,1,4.74L58,48l1.87,2C59.37,52.91,56.91,56,54,56Z" style="fill:#faefde;"/><path d="M30.53,21H26L35,2h0a2.2,2.2,0,0,1,2.1,2.86L32.44,19.6A2,2,0,0,1,30.53,21Z" style="fill:#fff7f0;"/><path d="M25,48v7l2,2,31-2,1.28-2.73A3,3,0,0,0,56.52,48Z" style="fill:#efd8be;"/><path d="M3,21H21a4,4,0,0,1,4,4V55a4,4,0,0,1-4,4H3a0,0,0,0,1,0,0V21A0,0,0,0,1,3,21Z" style="fill:#6e91ce;"/><rect x="3" y="21" width="5" height="38" rx="2.5" ry="2.5" style="fill:#80a6dd;"/><circle cx="17" cy="51" r="2" style="fill:#f9e3ae;"/><path d="M9,24H7a1,1,0,0,0,0,2H9a1,1,0,0,0,0-2Z" style="fill:#8d6c9f;"/><path d="M9,29H7a1,1,0,0,0,0,2H9a1,1,0,0,0,0-2Z" style="fill:#8d6c9f;"/><path d="M9,34H7a1,1,0,0,0,0,2H9a1,1,0,0,0,0-2Z" style="fill:#8d6c9f;"/><path d="M9,39H7a1,1,0,0,0,0,2H9a1,1,0,0,0,0-2Z" style="fill:#8d6c9f;"/><path d="M9,44H7a1,1,0,0,0,0,2H9a1,1,0,0,0,0-2Z" style="fill:#8d6c9f;"/><path d="M9,49H7a1,1,0,0,0,0,2H9a1,1,0,0,0,0-2Z" style="fill:#8d6c9f;"/><path d="M9,54H7a1,1,0,0,0,0,2H9a1,1,0,0,0,0-2Z" style="fill:#8d6c9f;"/><path d="M17,48a3,3,0,1,0,3,3A3,3,0,0,0,17,48Zm0,4.33A1.33,1.33,0,1,1,18.33,51,1.33,1.33,0,0,1,17,52.33Z" style="fill:#8d6c9f;"/><path d="M64,25.33V25a5,5,0,0,0-5-5H39.28L42.11,8.7A7,7,0,0,0,35.32,0H35a1,1,0,0,0-.91.59L24.58,21.52A5,5,0,0,0,21,20H4a2,2,0,0,0-2,2V58a2,2,0,0,0,2,2H21a5,5,0,0,0,4.38-2.64l.09,0a19.14,19.14,0,0,0,4.32.45l.9,0,26-1.62a4.61,4.61,0,0,0,3-7.86l-.26-.24A5,5,0,0,0,62,43.72V43a5,5,0,0,0-1.57-3.64,5.33,5.33,0,0,0,1.1-9.53A5.31,5.31,0,0,0,64,25.33ZM24,55a3,3,0,0,1-3,3H4V22H21a3,3,0,0,1,3,3ZM62,25.33a3.32,3.32,0,0,1-2.78,3.28l-2.38.4A1,1,0,0,0,57,31h1.67a3.33,3.33,0,0,1,.55,6.62l-2.38.4A1,1,0,0,0,57,40a3,3,0,0,1,3,3v.72a3,3,0,0,1-2.41,2.94L55.8,47a1,1,0,0,0,.2,2h.39a2.61,2.61,0,0,1,.16,5.21l-26,1.63A18,18,0,0,1,26,55.48h0c0-.16,0-.31,0-.47V25a4.93,4.93,0,0,0-.22-1.38,1,1,0,0,0,.13-.2L35.64,2a5,5,0,0,1,4.53,6.2L37.22,20H35a1,1,0,0,0,0,2H59a3,3,0,0,1,3,3Z" style="fill:#8d6c9f;"/></svg>
